<?xml version="1.0" encoding="us-ascii" standalone="no"?><svg xmlns="http://www.w3.org/2000/svg" xmlns:xlink="http://www.w3.org/1999/xlink" contentStyleType="text/css" height="1204px" preserveAspectRatio="none" style="width:1122px;height:1204px;background:#FFFFFF;" version="1.1" viewBox="0 0 1122 1204" width="1122px" zoomAndPan="magnify"><defs/><g><rect fill="#FFFFFF" height="1113.5605" style="stroke:#181818;stroke-width:1.0;" width="10" x="55" y="46.4883"/><rect fill="#FFFFFF" height="1104.5605" style="stroke:#181818;stroke-width:1.0;" width="10" x="226" y="46.4883"/><rect fill="#FFFFFF" height="581.9238" style="stroke:#181818;stroke-width:1.0;" width="10" x="392" y="121.4199"/><rect fill="#FFFFFF" height="135.9316" style="stroke:#181818;stroke-width:1.0;" width="10" x="392" y="952.1621"/><rect fill="#FFFFFF" height="100.6211" style="stroke:#181818;stroke-width:1.0;" width="10" x="515" y="747.6094"/><rect fill="none" height="773.4316" style="stroke:#000000;stroke-width:1.5;" width="944" x="171" y="82.7988"/><rect fill="none" height="553.9238" style="stroke:#000000;stroke-width:1.5;" width="779.5" x="325.5" y="136.4199"/><rect fill="none" height="126.5527" style="stroke:#000000;stroke-width:1.5;" width="652.5" x="335.5" y="226.6621"/><rect fill="none" height="224.5078" style="stroke:#000000;stroke-width:1.5;" width="745" x="171" y="913.541"/><line style="stroke:#181818;stroke-width:0.5;stroke-dasharray:5.0,5.0;" x1="60" x2="60" y1="36.4883" y2="1169.0488"/><line style="stroke:#181818;stroke-width:0.5;stroke-dasharray:5.0,5.0;" x1="231" x2="231" y1="36.4883" y2="1169.0488"/><line style="stroke:#181818;stroke-width:0.5;stroke-dasharray:5.0,5.0;" x1="396.5" x2="396.5" y1="36.4883" y2="1169.0488"/><line style="stroke:#181818;stroke-width:0.5;stroke-dasharray:5.0,5.0;" x1="519.5" x2="519.5" y1="36.4883" y2="1169.0488"/><line style="stroke:#181818;stroke-width:0.5;stroke-dasharray:5.0,5.0;" x1="647.5" x2="647.5" y1="36.4883" y2="1169.0488"/><line style="stroke:#181818;stroke-width:0.5;stroke-dasharray:5.0,5.0;" x1="739.5" x2="739.5" y1="36.4883" y2="1169.0488"/><line style="stroke:#181818;stroke-width:0.5;stroke-dasharray:5.0,5.0;" x1="869" x2="869" y1="36.4883" y2="1169.0488"/><rect fill="#E2E2F0" height="30.4883" rx="2.5" ry="2.5" style="stroke:#181818;stroke-width:0.5;" width="110" x="5" y="5"/><text fill="#000000" font-family="sans-serif" font-size="14" lengthAdjust="spacing" textLength="96" x="12" y="25.5352">MidiProcessor</text><rect fill="#E2E2F0" height="30.4883" rx="2.5" ry="2.5" style="stroke:#181818;stroke-width:0.5;" width="110" x="5" y="1168.0488"/><text fill="#000000" font-family="sans-serif" font-size="14" lengthAdjust="spacing" textLength="96" x="12" y="1188.584">MidiProcessor</text><rect fill="#E2E2F0" height="30.4883" rx="2.5" ry="2.5" style="stroke:#181818;stroke-width:0.5;" width="100" x="181" y="5"/><text fill="#000000" font-family="sans-serif" font-size="14" lengthAdjust="spacing" textLength="86" x="188" y="25.5352">MidiChannel</text><rect fill="#E2E2F0" height="30.4883" rx="2.5" ry="2.5" style="stroke:#181818;stroke-width:0.5;" width="100" x="181" y="1168.0488"/><text fill="#000000" font-family="sans-serif" font-size="14" lengthAdjust="spacing" textLength="86" x="188" y="1188.584">MidiChannel</text><rect fill="#E2E2F0" height="30.4883" rx="2.5" ry="2.5" style="stroke:#181818;stroke-width:0.5;" width="103" x="345.5" y="5"/><text fill="#000000" font-family="sans-serif" font-size="14" lengthAdjust="spacing" textLength="89" x="352.5" y="25.5352">NoteChannel</text><rect fill="#E2E2F0" height="30.4883" rx="2.5" ry="2.5" style="stroke:#181818;stroke-width:0.5;" width="103" x="345.5" y="1168.0488"/><text fill="#000000" font-family="sans-serif" font-size="14" lengthAdjust="spacing" textLength="89" x="352.5" y="1188.584">NoteChannel</text><rect fill="#E2E2F0" height="30.4883" rx="2.5" ry="2.5" style="stroke:#181818;stroke-width:0.5;" width="123" x="458.5" y="5"/><text fill="#000000" font-family="sans-serif" font-size="14" lengthAdjust="spacing" textLength="109" x="465.5" y="25.5352">RhythmChannel</text><rect fill="#E2E2F0" height="30.4883" rx="2.5" ry="2.5" style="stroke:#181818;stroke-width:0.5;" width="123" x="458.5" y="1168.0488"/><text fill="#000000" font-family="sans-serif" font-size="14" lengthAdjust="spacing" textLength="109" x="465.5" y="1188.584">RhythmChannel</text><rect fill="#E2E2F0" height="30.4883" rx="2.5" ry="2.5" style="stroke:#181818;stroke-width:0.5;" width="113" x="591.5" y="5"/><text fill="#000000" font-family="sans-serif" font-size="14" lengthAdjust="spacing" textLength="99" x="598.5" y="25.5352">VoiceAllocator</text><rect fill="#E2E2F0" height="30.4883" rx="2.5" ry="2.5" style="stroke:#181818;stroke-width:0.5;" width="113" x="591.5" y="1168.0488"/><text fill="#000000" font-family="sans-serif" font-size="14" lengthAdjust="spacing" textLength="99" x="598.5" y="1188.584">VoiceAllocator</text><rect fill="#E2E2F0" height="30.4883" rx="2.5" ry="2.5" style="stroke:#181818;stroke-width:0.5;" width="51" x="714.5" y="5"/><text fill="#000000" font-family="sans-serif" font-size="14" lengthAdjust="spacing" textLength="37" x="721.5" y="25.5352">Voice</text><rect fill="#E2E2F0" height="30.4883" rx="2.5" ry="2.5" style="stroke:#181818;stroke-width:0.5;" width="51" x="714.5" y="1168.0488"/><text fill="#000000" font-family="sans-serif" font-size="14" lengthAdjust="spacing" textLength="37" x="721.5" y="1188.584">Voice</text><rect fill="#E2E2F0" height="30.4883" rx="2.5" ry="2.5" style="stroke:#181818;stroke-width:0.5;" width="74" x="832" y="5"/><text fill="#000000" font-family="sans-serif" font-size="14" lengthAdjust="spacing" textLength="60" x="839" y="25.5352">OpnBase</text><rect fill="#E2E2F0" height="30.4883" rx="2.5" ry="2.5" style="stroke:#181818;stroke-width:0.5;" width="74" x="832" y="1168.0488"/><text fill="#000000" font-family="sans-serif" font-size="14" lengthAdjust="spacing" textLength="60" x="839" y="1188.584">OpnBase</text><rect fill="#FFFFFF" height="1113.5605" style="stroke:#181818;stroke-width:1.0;" width="10" x="55" y="46.4883"/><rect fill="#FFFFFF" height="1104.5605" style="stroke:#181818;stroke-width:1.0;" width="10" x="226" y="46.4883"/><rect fill="#FFFFFF" height="581.9238" style="stroke:#181818;stroke-width:1.0;" width="10" x="392" y="121.4199"/><rect fill="#FFFFFF" height="135.9316" style="stroke:#181818;stroke-width:1.0;" width="10" x="392" y="952.1621"/><rect fill="#FFFFFF" height="100.6211" style="stroke:#181818;stroke-width:1.0;" width="10" x="515" y="747.6094"/><polygon fill="#181818" points="214,63.7988,224,67.7988,214,71.7988,218,67.7988" style="stroke:#181818;stroke-width:1.0;"/><line style="stroke:#181818;stroke-width:1.0;" x1="65" x2="220" y1="67.7988" y2="67.7988"/><text fill="#000000" font-family="sans-serif" font-size="13" lengthAdjust="spacing" textLength="135" x="72" y="63.0566">NoteOn(key, velocity)</text><path d="M171,82.7988 L233,82.7988 L233,90.1094 L223,100.1094 L171,100.1094 L171,82.7988 " fill="#EEEEEE" style="stroke:#000000;stroke-width:1.5;"/><rect fill="none" height="773.4316" style="stroke:#000000;stroke-width:1.5;" width="944" x="171" y="82.7988"/><text fill="#000000" font-family="sans-serif" font-size="13" font-weight="bold" lengthAdjust="spacing" textLength="17" x="186" y="96.3672">alt</text><text fill="#000000" font-family="sans-serif" font-size="11" font-weight="bold" lengthAdjust="spacing" textLength="78" x="248" y="95.4336">[NoteChannel]</text><polygon fill="#181818" points="380,117.4199,390,121.4199,380,125.4199,384,121.4199" style="stroke:#181818;stroke-width:1.0;"/><line style="stroke:#181818;stroke-width:1.0;" x1="236" x2="386" y1="121.4199" y2="121.4199"/><text fill="#000000" font-family="sans-serif" font-size="13" lengthAdjust="spacing" textLength="135" x="243" y="116.6777">NoteOn(key, velocity)</text><path d="M325.5,136.4199 L387.5,136.4199 L387.5,143.7305 L377.5,153.7305 L325.5,153.7305 L325.5,136.4199 " fill="#EEEEEE" style="stroke:#000000;stroke-width:1.5;"/><rect fill="none" height="553.9238" style="stroke:#000000;stroke-width:1.5;" width="779.5" x="325.5" y="136.4199"/><text fill="#000000" font-family="sans-serif" font-size="13" font-weight="bold" lengthAdjust="spacing" textLength="17" x="340.5" y="149.9883">alt</text><text fill="#000000" font-family="sans-serif" font-size="11" font-weight="bold" lengthAdjust="spacing" textLength="79" x="402.5" y="149.0547">[velocity != 0]</text><line style="stroke:#181818;stroke-width:1.0;" x1="402" x2="444" y1="179.1963" y2="179.1963"/><line style="stroke:#181818;stroke-width:1.0;" x1="444" x2="444" y1="179.1963" y2="192.1963"/><line style="stroke:#181818;stroke-width:1.0;" x1="403" x2="444" y1="192.1963" y2="192.1963"/><polygon fill="#181818" points="413,188.1963,403,192.1963,413,196.1963,409,192.1963" style="stroke:#181818;stroke-width:1.0;"/><path d="M452,158.7305 L452,213.7305 L779,213.7305 L779,168.7305 L769,158.7305 L452,158.7305 " fill="#FEFFDD" style="stroke:#181818;stroke-width:0.5;"/><path d="M769,158.7305 L769,168.7305 L779,168.7305 L769,158.7305 " fill="#FEFFDD" style="stroke:#181818;stroke-width:0.5;"/><text fill="#000000" font-family="sans-serif" font-size="13" lengthAdjust="spacing" textLength="245" x="458" y="176.2988">holdQueue&#12363;&#12425;&#20877;&#21033;&#29992;&#21487;&#33021;&#12394;Voice&#12434;&#26908;&#32034;</text><text fill="#000000" font-family="sans-serif" font-size="13" lengthAdjust="spacing" textLength="306" x="458" y="191.6094">&#12394;&#12369;&#12428;&#12400;activeQueue&#12363;&#12425;&#20877;&#21033;&#29992;&#21487;&#33021;&#12394;Voice&#12434;&#26908;&#32034;</text><text fill="#000000" font-family="sans-serif" font-size="13" lengthAdjust="spacing" textLength="293" x="458" y="206.9199">&#12394;&#12369;&#12428;&#12400;freeQueue&#12363;&#12425;&#20877;&#21033;&#29992;&#21487;&#33021;&#12394;Voice&#12434;&#26908;&#32034;</text><path d="M335.5,226.6621 L397.5,226.6621 L397.5,233.9727 L387.5,243.9727 L335.5,243.9727 L335.5,226.6621 " fill="#EEEEEE" style="stroke:#000000;stroke-width:1.5;"/><rect fill="none" height="126.5527" style="stroke:#000000;stroke-width:1.5;" width="652.5" x="335.5" y="226.6621"/><text fill="#000000" font-family="sans-serif" font-size="13" font-weight="bold" lengthAdjust="spacing" textLength="17" x="350.5" y="240.2305">alt</text><text fill="#000000" font-family="sans-serif" font-size="11" font-weight="bold" lengthAdjust="spacing" textLength="171" x="412.5" y="239.2969">[&#20351;&#29992;&#12391;&#12365;&#12427;Voice&#12364;&#12394;&#12363;&#12387;&#12383;&#22580;&#21512;]</text><polygon fill="#181818" points="636,261.2832,646,265.2832,636,269.2832,640,265.2832" style="stroke:#181818;stroke-width:1.0;"/><line style="stroke:#181818;stroke-width:1.0;" x1="402" x2="642" y1="265.2832" y2="265.2832"/><text fill="#000000" font-family="sans-serif" font-size="13" lengthAdjust="spacing" textLength="108" x="409" y="260.541">Allocate(channel)</text><line style="stroke:#181818;stroke-width:1.0;" x1="648" x2="690" y1="298.749" y2="298.749"/><line style="stroke:#181818;stroke-width:1.0;" x1="690" x2="690" y1="298.749" y2="311.749"/><line style="stroke:#181818;stroke-width:1.0;" x1="649" x2="690" y1="311.749" y2="311.749"/><polygon fill="#181818" points="659,307.749,649,311.749,659,315.749,655,311.749" style="stroke:#181818;stroke-width:1.0;"/><path d="M698,278.2832 L698,333.2832 L973,333.2832 L973,288.2832 L963,278.2832 L698,278.2832 " fill="#FEFFDD" style="stroke:#181818;stroke-width:0.5;"/><path d="M963,278.2832 L963,288.2832 L973,288.2832 L963,278.2832 " fill="#FEFFDD" style="stroke:#181818;stroke-width:0.5;"/><text fill="#000000" font-family="sans-serif" font-size="13" lengthAdjust="spacing" textLength="245" x="704" y="295.8516">voice_pool&#12363;&#12425;&#21033;&#29992;&#21487;&#33021;&#12394;Voice&#12434;&#26908;&#32034;&#12290;</text><text fill="#000000" font-family="sans-serif" font-size="13" lengthAdjust="spacing" textLength="254" x="704" y="311.1621">&#12394;&#12369;&#12428;&#12400;Observer&#32076;&#30001;&#12391;&#20182;NoteChannel&#12395;</text><text fill="#000000" font-family="sans-serif" font-size="13" lengthAdjust="spacing" textLength="193" x="704" y="326.4727">&#26410;&#20351;&#29992;Voice&#12434;Release()&#12391;&#35201;&#27714;&#12290;</text><polygon fill="#181818" points="413,341.2148,403,345.2148,413,349.2148,409,345.2148" style="stroke:#181818;stroke-width:1.0;"/><line style="stroke:#181818;stroke-width:1.0;stroke-dasharray:2.0,2.0;" x1="407" x2="647" y1="345.2148" y2="345.2148"/><polygon fill="#181818" points="728,377.5254,738,381.5254,728,385.5254,732,381.5254" style="stroke:#181818;stroke-width:1.0;"/><line style="stroke:#181818;stroke-width:1.0;" x1="402" x2="734" y1="381.5254" y2="381.5254"/><text fill="#000000" font-family="sans-serif" font-size="13" lengthAdjust="spacing" textLength="193" x="409" y="376.7832">NoteOn(key, program, volume)</text><polygon fill="#181818" points="857,409.8359,867,413.8359,857,417.8359,861,413.8359" style="stroke:#181818;stroke-width:1.0;"/><line style="stroke:#181818;stroke-width:1.0;" x1="740" x2="863" y1="413.8359" y2="413.8359"/><text fill="#000000" font-family="sans-serif" font-size="13" lengthAdjust="spacing" textLength="86" x="747" y="409.0938">fm_set_tone()</text><path d="M874,394.5254 L874,419.5254 L1090,419.5254 L1090,404.5254 L1080,394.5254 L874,394.5254 " fill="#FEFFDD" style="stroke:#181818;stroke-width:0.5;"/><path d="M1080,394.5254 L1080,404.5254 L1090,404.5254 L1080,394.5254 " fill="#FEFFDD" style="stroke:#181818;stroke-width:0.5;"/><text fill="#000000" font-family="sans-serif" font-size="13" lengthAdjust="spacing" textLength="195" x="880" y="412.0938">Program&#12364;&#22793;&#21270;&#12375;&#12383;&#12392;&#12365;&#12398;&#12415;&#23455;&#34892;</text><polygon fill="#181818" points="751,426.8359,741,430.8359,751,434.8359,747,430.8359" style="stroke:#181818;stroke-width:1.0;"/><line style="stroke:#181818;stroke-width:1.0;stroke-dasharray:2.0,2.0;" x1="745" x2="868" y1="430.8359" y2="430.8359"/><polygon fill="#181818" points="857,459.1465,867,463.1465,857,467.1465,861,463.1465" style="stroke:#181818;stroke-width:1.0;"/><line style="stroke:#181818;stroke-width:1.0;" x1="740" x2="863" y1="463.1465" y2="463.1465"/><text fill="#000000" font-family="sans-serif" font-size="13" lengthAdjust="spacing" textLength="104" x="747" y="458.4043">fm_set_volume()</text><path d="M874,443.8359 L874,468.8359 L1085,468.8359 L1085,453.8359 L1075,443.8359 L874,443.8359 " fill="#FEFFDD" style="stroke:#181818;stroke-width:0.5;"/><path d="M1075,443.8359 L1075,453.8359 L1085,453.8359 L1075,443.8359 " fill="#FEFFDD" style="stroke:#181818;stroke-width:0.5;"/><text fill="#000000" font-family="sans-serif" font-size="13" lengthAdjust="spacing" textLength="190" x="880" y="461.4043">Volume&#12364;&#22793;&#21270;&#12375;&#12383;&#12392;&#12365;&#12398;&#12415;&#23455;&#34892;</text><polygon fill="#181818" points="751,476.1465,741,480.1465,751,484.1465,747,480.1465" style="stroke:#181818;stroke-width:1.0;"/><line style="stroke:#181818;stroke-width:1.0;stroke-dasharray:2.0,2.0;" x1="745" x2="868" y1="480.1465" y2="480.1465"/><polygon fill="#181818" points="857,505.457,867,509.457,857,513.457,861,509.457" style="stroke:#181818;stroke-width:1.0;"/><line style="stroke:#181818;stroke-width:1.0;" x1="740" x2="863" y1="509.457" y2="509.457"/><text fill="#000000" font-family="sans-serif" font-size="13" lengthAdjust="spacing" textLength="90" x="747" y="504.7148">fm_set_pitch()</text><polygon fill="#181818" points="751,519.457,741,523.457,751,527.457,747,523.457" style="stroke:#181818;stroke-width:1.0;"/><line style="stroke:#181818;stroke-width:1.0;stroke-dasharray:2.0,2.0;" x1="745" x2="868" y1="523.457" y2="523.457"/><polygon fill="#181818" points="857,548.7676,867,552.7676,857,556.7676,861,552.7676" style="stroke:#181818;stroke-width:1.0;"/><line style="stroke:#181818;stroke-width:1.0;" x1="740" x2="863" y1="552.7676" y2="552.7676"/><text fill="#000000" font-family="sans-serif" font-size="13" lengthAdjust="spacing" textLength="103" x="747" y="548.0254">fm_turnon_key()</text><polygon fill="#181818" points="751,562.7676,741,566.7676,751,570.7676,747,566.7676" style="stroke:#181818;stroke-width:1.0;"/><line style="stroke:#181818;stroke-width:1.0;stroke-dasharray:2.0,2.0;" x1="745" x2="868" y1="566.7676" y2="566.7676"/><polygon fill="#181818" points="413,576.7676,403,580.7676,413,584.7676,409,580.7676" style="stroke:#181818;stroke-width:1.0;"/><line style="stroke:#181818;stroke-width:1.0;stroke-dasharray:2.0,2.0;" x1="407" x2="739" y1="580.7676" y2="580.7676"/><line style="stroke:#000000;stroke-width:1.0;stroke-dasharray:2.0,2.0;" x1="325.5" x2="1105" y1="589.7676" y2="589.7676"/><text fill="#000000" font-family="sans-serif" font-size="11" font-weight="bold" lengthAdjust="spacing" textLength="85" x="330.5" y="600.4023">[velocity == 0]</text><polygon fill="#181818" points="728,621.0332,738,625.0332,728,629.0332,732,625.0332" style="stroke:#181818;stroke-width:1.0;"/><line style="stroke:#181818;stroke-width:1.0;" x1="402" x2="734" y1="625.0332" y2="625.0332"/><text fill="#000000" font-family="sans-serif" font-size="13" lengthAdjust="spacing" textLength="80" x="409" y="620.291">NoteOff(key)</text><polygon fill="#181818" points="857,650.3438,867,654.3438,857,658.3438,861,654.3438" style="stroke:#181818;stroke-width:1.0;"/><line style="stroke:#181818;stroke-width:1.0;" x1="740" x2="863" y1="654.3438" y2="654.3438"/><text fill="#000000" font-family="sans-serif" font-size="13" lengthAdjust="spacing" textLength="105" x="747" y="649.6016">fm_turnoff_key()</text><polygon fill="#181818" points="751,664.3438,741,668.3438,751,672.3438,747,668.3438" style="stroke:#181818;stroke-width:1.0;"/><line style="stroke:#181818;stroke-width:1.0;stroke-dasharray:2.0,2.0;" x1="745" x2="868" y1="668.3438" y2="668.3438"/><polygon fill="#181818" points="413,678.3438,403,682.3438,413,686.3438,409,682.3438" style="stroke:#181818;stroke-width:1.0;"/><line style="stroke:#181818;stroke-width:1.0;stroke-dasharray:2.0,2.0;" x1="407" x2="739" y1="682.3438" y2="682.3438"/><polygon fill="#181818" points="247,699.3438,237,703.3438,247,707.3438,243,703.3438" style="stroke:#181818;stroke-width:1.0;"/><line style="stroke:#181818;stroke-width:1.0;stroke-dasharray:2.0,2.0;" x1="241" x2="396" y1="703.3438" y2="703.3438"/><line style="stroke:#000000;stroke-width:1.0;stroke-dasharray:2.0,2.0;" x1="171" x2="1115" y1="712.3438" y2="712.3438"/><text fill="#000000" font-family="sans-serif" font-size="11" font-weight="bold" lengthAdjust="spacing" textLength="96" x="176" y="722.9785">[RhythmChannel]</text><polygon fill="#181818" points="503,743.6094,513,747.6094,503,751.6094,507,747.6094" style="stroke:#181818;stroke-width:1.0;"/><line style="stroke:#181818;stroke-width:1.0;" x1="236" x2="509" y1="747.6094" y2="747.6094"/><text fill="#000000" font-family="sans-serif" font-size="13" lengthAdjust="spacing" textLength="135" x="243" y="742.8672">NoteOn(key, velocity)</text><polygon fill="#181818" points="857,772.9199,867,776.9199,857,780.9199,861,776.9199" style="stroke:#181818;stroke-width:1.0;"/><line style="stroke:#181818;stroke-width:1.0;" x1="525" x2="863" y1="776.9199" y2="776.9199"/><text fill="#000000" font-family="sans-serif" font-size="13" lengthAdjust="spacing" textLength="128" x="532" y="772.1777">rtm_set_total_level()</text><polygon fill="#181818" points="536,786.9199,526,790.9199,536,794.9199,532,790.9199" style="stroke:#181818;stroke-width:1.0;"/><line style="stroke:#181818;stroke-width:1.0;stroke-dasharray:2.0,2.0;" x1="530" x2="868" y1="790.9199" y2="790.9199"/><polygon fill="#181818" points="857,816.2305,867,820.2305,857,824.2305,861,820.2305" style="stroke:#181818;stroke-width:1.0;"/><line style="stroke:#181818;stroke-width:1.0;" x1="525" x2="863" y1="820.2305" y2="820.2305"/><text fill="#000000" font-family="sans-serif" font-size="13" lengthAdjust="spacing" textLength="103" x="532" y="815.4883">fm_turnon_key()</text><polygon fill="#181818" points="536,830.2305,526,834.2305,536,838.2305,532,834.2305" style="stroke:#181818;stroke-width:1.0;"/><line style="stroke:#181818;stroke-width:1.0;stroke-dasharray:2.0,2.0;" x1="530" x2="868" y1="834.2305" y2="834.2305"/><polygon fill="#181818" points="247,844.2305,237,848.2305,247,852.2305,243,848.2305" style="stroke:#181818;stroke-width:1.0;"/><line style="stroke:#181818;stroke-width:1.0;stroke-dasharray:2.0,2.0;" x1="241" x2="519" y1="848.2305" y2="848.2305"/><polygon fill="#181818" points="76,865.2305,66,869.2305,76,873.2305,72,869.2305" style="stroke:#181818;stroke-width:1.0;"/><line style="stroke:#181818;stroke-width:1.0;stroke-dasharray:2.0,2.0;" x1="70" x2="225" y1="869.2305" y2="869.2305"/><polygon fill="#181818" points="214,894.541,224,898.541,214,902.541,218,898.541" style="stroke:#181818;stroke-width:1.0;"/><line style="stroke:#181818;stroke-width:1.0;" x1="65" x2="220" y1="898.541" y2="898.541"/><text fill="#000000" font-family="sans-serif" font-size="13" lengthAdjust="spacing" textLength="137" x="72" y="893.7988">NoteOff(key, velocity)</text><path d="M171,913.541 L233,913.541 L233,920.8516 L223,930.8516 L171,930.8516 L171,913.541 " fill="#EEEEEE" style="stroke:#000000;stroke-width:1.5;"/><rect fill="none" height="224.5078" style="stroke:#000000;stroke-width:1.5;" width="745" x="171" y="913.541"/><text fill="#000000" font-family="sans-serif" font-size="13" font-weight="bold" lengthAdjust="spacing" textLength="17" x="186" y="927.1094">alt</text><text fill="#000000" font-family="sans-serif" font-size="11" font-weight="bold" lengthAdjust="spacing" textLength="78" x="248" y="926.1758">[NoteChannel]</text><polygon fill="#181818" points="380,948.1621,390,952.1621,380,956.1621,384,952.1621" style="stroke:#181818;stroke-width:1.0;"/><line style="stroke:#181818;stroke-width:1.0;" x1="236" x2="386" y1="952.1621" y2="952.1621"/><text fill="#000000" font-family="sans-serif" font-size="13" lengthAdjust="spacing" textLength="137" x="243" y="947.4199">NoteOff(key, velocity)</text><line style="stroke:#181818;stroke-width:1.0;" x1="402" x2="444" y1="970.3174" y2="970.3174"/><line style="stroke:#181818;stroke-width:1.0;" x1="444" x2="444" y1="970.3174" y2="983.3174"/><line style="stroke:#181818;stroke-width:1.0;" x1="403" x2="444" y1="983.3174" y2="983.3174"/><polygon fill="#181818" points="413,979.3174,403,983.3174,413,987.3174,409,983.3174" style="stroke:#181818;stroke-width:1.0;"/><path d="M452,965.1621 L452,990.1621 L769,990.1621 L769,975.1621 L759,965.1621 L452,965.1621 " fill="#FEFFDD" style="stroke:#181818;stroke-width:0.5;"/><path d="M759,965.1621 L759,975.1621 L769,975.1621 L759,965.1621 " fill="#FEFFDD" style="stroke:#181818;stroke-width:0.5;"/><text fill="#000000" font-family="sans-serif" font-size="13" lengthAdjust="spacing" textLength="296" x="458" y="982.7305">activeQueue or holdQueue&#12363;&#12425;On&#12398;Voice&#12434;&#26908;&#32034;</text><polygon fill="#181818" points="728,1012.7832,738,1016.7832,728,1020.7832,732,1016.7832" style="stroke:#181818;stroke-width:1.0;"/><line style="stroke:#181818;stroke-width:1.0;" x1="402" x2="734" y1="1016.7832" y2="1016.7832"/><text fill="#000000" font-family="sans-serif" font-size="13" lengthAdjust="spacing" textLength="80" x="409" y="1012.041">NoteOff(key)</text><polygon fill="#181818" points="857,1042.0938,867,1046.0938,857,1050.0938,861,1046.0938" style="stroke:#181818;stroke-width:1.0;"/><line style="stroke:#181818;stroke-width:1.0;" x1="740" x2="863" y1="1046.0938" y2="1046.0938"/><text fill="#000000" font-family="sans-serif" font-size="13" lengthAdjust="spacing" textLength="105" x="747" y="1041.3516">fm_turnoff_key()</text><polygon fill="#181818" points="751,1056.0938,741,1060.0938,751,1064.0938,747,1060.0938" style="stroke:#181818;stroke-width:1.0;"/><line style="stroke:#181818;stroke-width:1.0;stroke-dasharray:2.0,2.0;" x1="745" x2="868" y1="1060.0938" y2="1060.0938"/><polygon fill="#181818" points="413,1070.0938,403,1074.0938,413,1078.0938,409,1074.0938" style="stroke:#181818;stroke-width:1.0;"/><line style="stroke:#181818;stroke-width:1.0;stroke-dasharray:2.0,2.0;" x1="407" x2="739" y1="1074.0938" y2="1074.0938"/><polygon fill="#181818" points="247,1084.0938,237,1088.0938,247,1092.0938,243,1088.0938" style="stroke:#181818;stroke-width:1.0;"/><line style="stroke:#181818;stroke-width:1.0;stroke-dasharray:2.0,2.0;" x1="241" x2="396" y1="1088.0938" y2="1088.0938"/><line style="stroke:#000000;stroke-width:1.0;stroke-dasharray:2.0,2.0;" x1="171" x2="916" y1="1097.0938" y2="1097.0938"/><text fill="#000000" font-family="sans-serif" font-size="11" font-weight="bold" lengthAdjust="spacing" textLength="96" x="176" y="1107.7285">[RhythmChannel]</text><line style="stroke:#181818;stroke-width:1.0;" x1="236" x2="278" y1="1117.0488" y2="1117.0488"/><line style="stroke:#181818;stroke-width:1.0;" x1="278" x2="278" y1="1117.0488" y2="1130.0488"/><line style="stroke:#181818;stroke-width:1.0;" x1="237" x2="278" y1="1130.0488" y2="1130.0488"/><polygon fill="#181818" points="247,1126.0488,237,1130.0488,247,1134.0488,243,1130.0488" style="stroke:#181818;stroke-width:1.0;"/><polygon fill="#181818" points="76,1147.0488,66,1151.0488,76,1155.0488,72,1151.0488" style="stroke:#181818;stroke-width:1.0;"/><line style="stroke:#181818;stroke-width:1.0;stroke-dasharray:2.0,2.0;" x1="70" x2="230" y1="1151.0488" y2="1151.0488"/><!--SRC=[lLLDRzD04BtdLood9XAHE5SK2JWYIEcXryWuuyR2sRMSJQJSM2EXLad5XwfogTG25PGY5IgL4whwOxPEyZCOhvrqryvNWyJDtfdtPkRDx8vl1TorNT-Yd3nrQ-vwm6neDbb02dx6zBXkKGgUSVwCSPXqlb7ly7fZP2bODdVR5WSpX7aySbufh90dq24LYfzcIkK7kYTPLU4hjFWIEdT96pnckxnJmd2UcHanO36DPfrAGyWuFvqiFaV-aH-viqRkuPdEc8c0La8e_fF0tQfpzKj8dNcrvoreWHHT6Uv4RtQZxU-3lPFexS_XwqifJZUPQuCCF_IF3mONdrCKdalnNeOzANwfzE3VE9m0Riq0jARAIPMulhn2W1JVfDYLOJS1Y9wAqfNYYnI7qT55z6vRWRCwAVU77effSMpnAac_eMWdNYK5oxZbW6bfEPK9QST-LPynBornLdtoLJW6wZ9LNZGXQ4Cm-DqRx9rZhTT_zhLAfFWnXlKFJXD5HimRu87LX689OSEledyUtaJHf3IbkLykvoj4x-aQPkRO3zXMO3Lme9dNQe2cee9KVFe8aqAGqwWsWLSvevZYv55TJxYmgT7nJjJRb-8ZDbMAaxZZuaoAg-ZiSFYfLyYLb0ICYqa3paiZoNPQ8flA-Z_oy5rkrukbsuDvAw2CLh47Cz4JUnsts4EYyTkobhmjSphkE77BItEpSfpbqrAJfx-YiTLyusem-RrK9PaBmQJ2P0tp8YzobiyaCEiF-6Z4kULLFK129OA9CQMOnPVlyYoch6ZPp3NPJ5EiUMO1ndXzLzuiIyTPS5icmwAhkjIspDDCMPTBR4Pjhn6i8xCeAnIl-kojjE1jMV2kJBefq-x9KZTaxWN9j7AXoT1YQUT_0G00]--></g></svg>